<mxfile host="app.diagrams.net" modified="2022-01-26T13:47:30.655Z" agent="5.0 (Windows)" etag="9DhdZ5x7Asrv0XAx7yEM" version="16.4.6" type="github">
  <diagram id="cS2hcf1KZ0gYAgoUY_NQ" name="Page-1">
    <mxGraphModel dx="1597" dy="840" grid="1" gridSize="10" guides="1" tooltips="1" connect="0" arrows="0" fold="1" page="1" pageScale="1" pageWidth="827" pageHeight="1169" math="0" shadow="0">
      <root>
        <mxCell id="0" />
        <mxCell id="1" parent="0" />
        <mxCell id="TQN7dY6TnlDZfphlFs2Y-1" value="" style="shape=image;verticalLabelPosition=bottom;labelBackgroundColor=default;verticalAlign=top;aspect=fixed;imageAspect=0;image=data:image/png,iVBORw0KGgoAAAANSUhEUgAABgAAAAMDCAYAAABkQt5iAAAAOXRFWHRTb2Z0d2FyZQBNYXRwbG90bGliIHZlcnNpb24zLjMuNCwgaHR0cHM6Ly9tYXRwbG90bGliLm9yZy8QVMy6AAAACXBIWXMAAA9hAAAPYQGoP6dpAABP6ElEQVR4nO3de5DUd53v/zeQALEICOZkIFkUIyHGW6KJ4eKmLE9wqdLK5Y9TcgIk2Xg7KsnPA+xZB4hhxV3IsjiVOgbNMavrEhgTdzVxVyg8ZuKU5TJO2Ek4Rzc3MJPLsRhyZ7hEyND9+2MIhjCQuXT3p7/f7+NRRVm03dNPbEM+06/p7mHlcrkcAAAAAABArgxPHQAAAAAAAFSeAQAAAAAAAHLIAAAAAAAAADlkAAAAAAAAgBwyAAAAAAAAQA4ZAAAAAAAAIIcMAAAAAAAAkEMGAAAAAAAAyCEDAAAAAAAA5JABAAAAAAAAcsgAAAAAAAAAOWQAAAAAAACAHDIAAAAAAABADhkAAAAAAAAghwwAAAAAAACQQwYAAAAAAADIIQMAAAAAAADkkAEAAAAAAAByyAAAAAAAAAA5ZAAAAAAAAIAcMgAAAAAAAEAOGQAAAAAAACCHDAAAAAAAAJBDBgAAAAAAAMghAwAAAAAAAOSQAQAAAAAAAHLIAAAAAAAAADlkAAAAAAAAgBwyAAAAAAAAQA4ZAAAAAAAAIIcMAAAAAAAAkEMGAAAAAAAAyCEDAAAAAAAA5JABAAAAAAAAcsgAAAAAAAAAOWQAAAAAAACAHDIAAAAAAABADhkAAAAAAAAghwwAAAAAAACQQwYAAAAAAADIIQMAAAAAAADkkAEAAAAAAAByyAAAAAAAAAA5ZAAAAAAAAIAcMgAAAAAAAEAOGQAAAAAAACCHDAAAAAAAAJBDBgAAAAAAAMghAwAAAAAAAOSQAQAAAAAAAHLIAAAAAAAAADlkAAAAAAAAgBwyAAAAAAAAQA4ZAAAAAAAAIIcMAAAAAAAAkEMGAAAAAAAAyCEDAAAAAAAA5JABAAAAAAAAcsgAAAAAAAAAOWQAAAAAAACAHDIAAAAAAABADhkAAAAAAAAghwwAAAAAAACQQwYAAAAAAADIIQMAAAAAAADkkAEAAAAAAAByyAAAAAAAAAA5ZAAAAAAAAIAcMgAAAAAAAEAOGQAAAAAAACCHDAAAAAAAAJBDBgAAAAAAAMghAwAAAAAAAOSQAQAAAAAAAHLIAAAAAAAAADlkAAAAAAAAgBwyAAAAAAAAQA4ZAAAAAAAAIIcMAAAAAAAAkEMGAAAAAAAAyCEDAAAAAAAA5JABAAAAAAAAcsgAAAAAAAAAOWQAAAAAAACAHDIAAAAAAABADhkAAAAAAAAghwwAAAAAAACQQwYA6sIvf/nLuPzyy+Oss86KYcOGxb333vumt2ltbY0PfehDMWrUqJg6dWp8//vfr3onAAC144wIAABDYwCgLuzfvz8uuOCCWLduXb+u39nZGZ/85CfjYx/7WGzfvj3++3//7/HZz342fvazn1W5FACAWnFGBACAoRlWLpfLqSPg9YYNGxb33HNPXHXVVSe8zle+8pXYtGlT/Pa3vz162X/9r/81Xn755diyZUsNKgEAqCVnRAAAGDivACCT2traYvbs2cdcNmfOnGhra0tUBABAas6IAABwrFNSB8BgdHV1RUNDwzGXNTQ0RHd3d7zyyitx2mmnHXebgwcPxsGDB4/+vlQqxYsvvhhve9vbYtiwYVVvBgCKqVwux969e+Oss86K4cP9/E01OSMCAFnhjEitGAAojNWrV8fXvva11BkAQEE988wz8Sd/8iepM3gDZ0QAICVnRKrNAEAmTZw4MXbv3n3MZbt3746xY8f2+ZNdERFLly6NxYsXH/39nj174u1vf3s888wzMXbs2Kr2ApBd48alLiD7uiNicpx++umpQ3LPGREAyIru7u6YPNkZkeozAJBJM2fOjM2bNx9z2c9//vOYOXPmCW8zatSoGDVq1HGXjx071jd3AEDVeTuZ6nNGBACyxhmRavMGU9SFffv2xfbt22P79u0REdHZ2Rnbt2+Pp59+OiJ6fzLr2muvPXr9L3zhC/HEE0/EX/7lX8ajjz4a3/rWt+KHP/xhLFq0KEU+ADlVKqUugGJzRgQAgKExAFAX/v3f/z0++MEPxgc/+MGIiFi8eHF88IMfjJtvvjkiInbt2nX0G72IiHe+852xadOm+PnPfx4XXHBBfOMb34i///u/jzlz5iTpByCf1q9PXQDF5owIAABDM6xcLpdTR0AK3d3dMW7cuNizZ4+XdwPQp3POiejsTF1B9nVHhDNHVjgjAgC14MxBrXgFAADACXjyHwAAgCwzAAAAAAAAQA4ZAAAA+tDTk7oAAAAAhsYAAADQh6am1AUAAAAwNAYAAIA+NDamLgAAAIChMQAAALxBR0dEuZy6AgAAAIbGAAAA8AZ++h8AAIA8MAAAALxBS0vqAgAAABg6AwAAwBt4+x8AAADywAAAAPA6pVLqAgAAAKgMAwAAwOusX5+6AAAAACrDAAAA8DorV6YuAAAAgMowAAAAvE5nZ+oCAAAAqAwDAAAAAAAA5JABAADgiPb21AUAAABQOQYAAIAjvvGN1AUAAABQOQYAAIAjfvrT1AUAAABQOQYAAIAjXnkldQEAAABUjgEAACAiSqXUBQAAAFBZBgAAgIjo6EhdAAAAAJVlAAAAiIjGxtQFAAAAUFkGAACAiGhtTV0AAAAAlWUAAAAInwEAAABA/hgAAIDC8+Q/AAAAeWQAAAAKb9u21AUAAABQeQYAAKDwli9PXQAAAACVZwAAAAqvpSV1AQAAAFSeAQAAAAAAAHLIAAAAFJoPAAYAACCvDAAAQKGtWZO6AAAAAKrDAAAAFNpNN6UuAAAAgOowAAAAhdXREXH4cOoKAAAAqA4DAABQWI2NqQsAAACgegwAAEBhtbSkLgAAAIDqMQAAAIVVLqcuAAAAgOoxAAAAhVQqpS4AAACA6jIAAACFtH596gIAAACoLgMAAFBIK1emLgAAAIDqMgAAAIXU2Zm6AAAAAKrLAAAAAAAAADlkAAAACqenJ3UBAAAAVJ8BAAAonObm1AUAAABQfQYAAKBwGhtTFwAAAED1GQAAgMLZtSt1AQAAAFSfAQAAAAAAAHLIAAAAFEp7e+oCAAAAqA0DAABQKGvXpi4AAACA2jAAAACFsnlz6gIAAACoDQMAAFAoBw6kLgAAAIDaMAAAAIVRKqUuAAAAgNoxAAAAhdHRkboAAAAAascAAAAURmNj6gIAAACoHQMAAFAYra2pCwAAAKB2DAAAQGH4DAAAAACKxAAAABSCJ/8BAAAoGgMAAFAI69enLgAAAIDaMgAAAIXw13+dugAAAABqywAAABTC736XugAAAABqywAAAAAAAAA5ZAAAAHKvpyd1AQAAANSeAQAAyL2mptQFAAAAUHsGAAAg9xobUxcAAABA7RkAAIBc6+iIKJdTVwAAAEDtGQAAgFzz0/8AAAAUlQEAAMi1lpbUBQAAAJCGAQAAyDVv/wMAAEBRGQAAgNwqlVIXAAAAQDoGAAAgt9avT10AAAAA6RgAAIDcWrkydQEAAACkYwAAAHKrszN1AQAAAKRjAAAAAAAAgBwyAAAAudTTk7oAAAAA0jIAAAC51NycugAAAADSMgAAALnU2Ji6AAAAANIyAAAAubRrV+oCAAAASMsAAAAAAAAAOWQAAAByp709dQEAAACkZwAAAHJn2bLUBQAAAJCeAQAAyJ3W1tQFAAAAkJ4BAADInVIpdQEAAACkZwAAAHLFk/8AAADQywAAAOTKtm2pCwAAAKA+GAAAgFxZvjx1AQAAANQHAwAAkCstLakLAAAAoD4YAAAAAAAAIIcMAABAbvgAYAAAAPgjAwAAkBtr1qQuAAAAgPphAAAAcuOmm1IXAAAAQP0wAAAAudDREXH4cOoKAAAAqB8GAAAgFxobUxcAAABAfTEAAAC50NqaugAAAADqiwEAAMiFnp7UBQAAAFBfDAAAQOaVSqkLAAAAoP4YAACAzNu2LXUBAAAA1B8DAACQecuXpy4AAACA+mMAAAAyr6UldQEAAADUHwMAAAAAAADkkAEAAMg0HwAMAAAAfTMAAACZtn596gIAAACoTwYAACDTli1LXQAAAAD1yQAAAGTarl2pCwAAAKA+GQAAAAAAACCHDAAAQGa1t6cuAAAAgPplAAAAMmvt2tQFAAAAUL8MAABAZm3enLoAAAAA6pcBAADIrAMHUhcAAABA/TIAAACZVCqlLgAAAID6ZgAAADKpoyN1AQAAANQ3AwB1Y926dTFlypQYPXp0TJ8+PR544IGTXv/WW2+N8847L0477bSYPHlyLFq0KP7whz/UqBaA1BobUxcAteCMCAAAg2cAoC7cfffdsXjx4lixYkU8+OCDccEFF8ScOXPi2Wef7fP6zc3N0djYGCtWrIhHHnkkvvvd78bdd98dy5Ytq3E5AKm0tqYuAKrNGREAAIbGAEBdaGpqis997nNx/fXXx3ve8564/fbb4y1veUt873vf6/P6W7dujY985CMxb968mDJlSvzZn/1ZXH311W/6E2EA5IfPAID8c0YEAIChMQCQ3KFDh6KjoyNmz5599LLhw4fH7Nmzo62trc/bzJo1Kzo6Oo5+M/fEE0/E5s2b4xOf+MQJ7+fgwYPR3d19zC8AssmT/5B/zogAADB0p6QOgOeffz4OHz4cDQ0Nx1ze0NAQjz76aJ+3mTdvXjz//PPxp3/6p1Eul6Onpye+8IUvnPTl3atXr46vfe1rFW0HII1t21IXANXmjAgAAEPnFQBkUmtra6xatSq+9a1vxYMPPhg//vGPY9OmTfH1r3/9hLdZunRp7Nmz5+ivZ555pobFAFTS8uWpC4B65IwIAADH8goAkjvjjDNixIgRsXv37mMu3717d0ycOLHP23z1q1+Na665Jj772c9GRMT73//+2L9/f3z+85+P5cuXx/Dhx29bo0aNilGjRlX+DwBAzbW0pC4Aqs0ZEQAAhs4rAEhu5MiRcdFFF0XL657NKZVK0dLSEjNnzuzzNgcOHDjuG7gRI0ZERES5XK5eLAAANeGMCAAAQ+cVANSFxYsXx3XXXRcXX3xxXHLJJXHrrbfG/v374/rrr4+IiGuvvTbOPvvsWL16dUREXH755dHU1BQf/OAHY/r06bFz58746le/GpdffvnRb/IAyCcfAAzF4YwIAABDYwCgLsydOzeee+65uPnmm6OrqysuvPDC2LJly9EPfXv66aeP+Wmum266KYYNGxY33XRT/P73v4//9J/+U1x++eXxN3/zN6n+CADUyJo1qQuAWnFGBACAoRlW9lpYCqq7uzvGjRsXe/bsibFjx6bOAaCfhg+PcHohW7ojwpkjK5wRAYBacOagVnwGAACQGR0dnvwHAACA/jIAAACZ0diYugAAAACywwAAAGRGS0vqAgAAAMgOAwAAkBne/gcAAAD6zwAAAGRCqZS6AAAAALLFAAAAZML69akLAAAAIFsMAABAJqxcmboAAAAAssUAAABkQmdn6gIAAADIFgMAAAAAAADkkAEAAKh7PT2pCwAAACB7DAAAQN1rbk5dAAAAANljAAAA6l5jY+oCAAAAyB4DAABQ93btSl0AAAAA2WMAAAAAAACAHDIAAAB1rb09dQEAAABkkwEAAKhra9emLgAAAIBsMgAAAHVt8+bUBQAAAJBNBgAAoK4dOJC6AAAAALLJAAAA1K1SKXUBAAAAZJcBAACoWx0dqQsAAAAguwwAAEDdamxMXQAAAADZZQAAAOrW/fenLgAAAIDsMgAAAAAAAEAOGQAAgLrkA4ABAABgaAwAAEBdWrMmdQEAAABkmwEAAKhLN92UugAAAACyzQAAANSdjo6Iw4dTVwAAAEC2GQAAgLrT2Ji6AAAAALLPAAAA1J3W1tQFAAAAkH0GAACg7vT0pC4AAACA7DMAAAB1pVRKXQAAAAD5YAAAAOrKtm2pCwAAACAfDAAAQF1Zvjx1AQAAAOSDAQAAqCstLakLAAAAIB8MAAAAAAAAkEMGAACgbvgAYAAAAKgcAwAAUDfWr09dAAAAAPlhAAAA6sbKlakLAAAAID8MAABA3ejsTF0AAAAA+WEAAAAAAACAHDIAAAB1ob09dQEAAADkiwEAAKgL3/hG6gIAAADIFwMAAFAXfvrT1AUAAACQLwYAAKAuvPJK6gIAAADIFwMAAJBcqZS6AAAAAPLHAAAAJNfRkboAAAAA8scAAAAk19iYugAAAADyxwAAACTX2pq6AAAAAPLHAAAAJOczAAAAAKDyDAAAQFKe/AcAAIDqMAAAAElt25a6AAAAAPLJAAAAJLV8eeoCAAAAyCcDAACQVEtL6gIAAADIJwMAAAAAAADkkAEAAEjGBwADAABA9RgAAIBk1qxJXQAAAAD5ZQAAAJK56abUBQAAAJBfBgAAIImOjojDh1NXAAAAQH4ZAACAJBobUxcAAABAvhkAAIAkWlpSFwAAAEC+GQAAgCTK5dQFAAAAkG8GAACg5kql1AUAAACQfwYAAKDm1q9PXQAAAAD5ZwAAAGpu5crUBQAAAJB/BgAAoOY6O1MXAAAAQP4ZAAAAAAAAIIcMAABATfX0pC4AAACAYjAAAAA11dycugAAAACKwQAAANRUY2PqAgAAACgGAwAAUFO7dqUuAAAAgGIwAAAAAAAAQA4ZAACAmmlvT10AAAAAxWEAAABqZu3a1AUAAABQHAYAAKBmNm9OXQAAAADFYQAAAGrmwIHUBQAAAFAcBgAAoCZKpdQFAAAAUCwGAACgJjo6UhcAAABAsRgAAICaaGxMXQAAAADFYgAAAGqitTV1AQAAABSLAQAAqAmfAQAAAAC1ZQAAAKrOk/8AAABQewYAAKDq1qxJXQAAAADFYwAAAKru5ptTFwAAAEDxGAAAgKrq6Ih49dXUFQAAAFA8BgAAoKoaG1MXAAAAQDEZAACAqmptTV0AAAAAxWQAAACqqqcndQEAAAAUkwEAAKiaUil1AQAAABSXAQAAqJpt21IXAAAAQHEZAACAqlm+PHUBAAAAFJcBAACompaW1AUAAABQXAYAAAAAAADIIQMAAFAVPgAYAAAA0jIAAABVsX596gIAAAAoNgMAAFAVK1emLgAAAIBiMwAAAFXR2Zm6AAAAAIrNAAAAAAAAADlkAAAAKq6nJ3UBAAAAYAAAACquuTl1AQAAAGAAAAAqrrExdQEAAABgAAAAKm7XrtQFAAAAgAEAAAAAAAByyAAAAFRUe3vqAgAAACDCAAAAVNiyZakLAAAAgAgDAABQYb/8ZeoCAAAAIMIAAABUWE9P6gIAAAAgwgAAAFRQqZS6AAAAAHiNAYC6sW7dupgyZUqMHj06pk+fHg888MBJr//yyy/HwoULY9KkSTFq1KiYNm1abN68uUa1APRl27bUBUDeOCMCAMDgnZI6ACIi7r777li8eHHcfvvtMX369Lj11ltjzpw58dhjj8WZZ5553PUPHToUH//4x+PMM8+Mf/7nf46zzz47nnrqqXjrW99a+3gAjlq+PHUBkCfOiAAAMDTDyuVyOXUETJ8+PT784Q/HbbfdFhERpVIpJk+eHDfeeGM0NjYed/3bb789/u7v/i4effTROPXUUwd1n93d3TFu3LjYs2dPjB07dkj9APQaNix1AdSj7ohw5hgMZ0QAIK+cOagVbwFEcocOHYqOjo6YPXv20cuGDx8es2fPjra2tj5v8y//8i8xc+bMWLhwYTQ0NMT73ve+WLVqVRw+fLhW2QAAVJEzIgAADJ23ACK5559/Pg4fPhwNDQ3HXN7Q0BCPPvpon7d54okn4v7774/58+fH5s2bY+fOnfGlL30pXn311VixYkWftzl48GAcPHjw6O+7u7sr94cAwAcAAxXljAgAAEPnFQBkUqlUijPPPDO+853vxEUXXRRz586N5cuXx+23337C26xevTrGjRt39NfkyZNrWAyQf2vWpC4Ais4ZEQAAjmUAILkzzjgjRowYEbt37z7m8t27d8fEiRP7vM2kSZNi2rRpMWLEiKOXnX/++dHV1RWHDh3q8zZLly6NPXv2HP31zDPPVO4PAUDcdFPqAiBPnBEBAGDoDAAkN3LkyLjooouipaXl6GWlUilaWlpi5syZfd7mIx/5SOzcuTNKr3u/iccffzwmTZoUI0eO7PM2o0aNirFjxx7zC4DK6OiI8BbbQCU5IwIAwNAZAKgLixcvjjvuuCP+8R//MR555JH44he/GPv374/rr78+IiKuvfbaWLp06dHrf/GLX4wXX3wxvvzlL8fjjz8emzZtilWrVsXChQtT/REACq2xMXUBkEfOiAAAMDQ+BJi6MHfu3Hjuuefi5ptvjq6urrjwwgtjy5YtRz/07emnn47hw/+4V02ePDl+9rOfxaJFi+IDH/hAnH322fHlL385vvKVr6T6IwAUWmtr6gIgj5wRAQBgaIaVy+Vy6ghIobu7O8aNGxd79uzxUm+AIRo2LHUB1LPuiHDmyApnRACgFpw5qBVvAQQADMnr3mobAAAAqCMGAABgSLZtS10AAAAA9MUAAAAMyfLlqQsAAACAvhgAAIAhaWlJXQAAAAD0xQAAAAAAAAA5ZAAAAAbNBwADAABA/TIAAACDtn596gIAAADgRAwAAMCgLVuWugAAAAA4EQMAADBou3alLgAAAABOxAAAAAAAAAA5ZAAAAAalvT11AQAAAHAyBgAAYFDWrk1dAAAAAJyMAQAAGJTNm1MXAAAAACdjAAAABuXAgdQFAAAAwMkYAACAASuVUhcAAAAAb8YAAAAMWEdH6gIAAADgzRgAAIABa2xMXQAAAAC8GQMAADBgra2pCwAAAIA3YwAAAAbMZwAAAABA/TMAAAAD4sl/AAAAyAYDAAAwID/6UeoCAAAAoD8MAADAgHz606kLAAAAgP4wAAAA/dbREbFvX+oKAAAAoD8MAABAv61Zk7oAAAAA6C8DAADQb5s2pS4AAAAA+ssAAAD02/79qQsAAACA/jIAAAD9UiqlLgAAAAAGwgAAAPRLR0fqAgAAAGAgDAAAQL80NqYuAAAAAAbCAAAA9Mv996cuAAAAAAbCAAAAAAAAADlkAAAA3pQPAAYAAIDsMQAAAG9q/frUBQAAAMBAGQAAgDe1cmXqAgAAAGCgDAAAwJvq7ExdAAAAAAyUAQAAAAAAAHLIAAAAnFRPT+oCAAAAYDAMAADASTU3py4AAAAABsMAAACcVGNj6gIAAABgMAwAAMBJ7dqVugAAAAAYDAMAAAAAAADkkAEAADih9vbUBQAAAMBgGQAAgBNauzZ1AQAAADBYBgAA4IQ2b05dAAAAAAyWAQAAOKEDB1IXAAAAAINlAAAA+lQqpS4AAAAAhsIAAAD0qaMjdQEAAAAwFAYAAKBPjY2pCwAAAIChMAAAAH26//7UBQAAAMBQGAAAAAAAACCHDAAAwHF8ADAAAABknwEAADjOmjWpCwAAAIChMgAAAMe56abUBQAAAMBQGQAAgGN0dEQcPpy6AgAAABgqAwAAcIzGxtQFAAAAQCUYAACAY7S2pi4AAAAAKsEAAAAco6cndQEAAABQCQYAAOCoUil1AQAAAFApBgAA4Kht21IXAAAAAJViAAAAjlq+PHUBAAAAUCkGAADgqJaW1AUAAABApRgAAAAAAAAghwwAAEBE+ABgAAAAyBsDAAAQERHr16cuAAAAACrJAAAARETEypWpCwAAAIBKMgAAABER0dmZugAAAACoJAMAAAAAAADkkAEAAIj29tQFAAAAQKUZAACA+MY3UhcAAAAAlWYAAADipz9NXQAAAABUmgEAAIhXXkldAAAAAFSaAQAACq5USl0AAAAAVIMBAAAKrqMjdQEAAABQDQYAACi4xsbUBQAAAEA1GAAAoOBaW1MXAAAAANVgAACAgvMZAAAAAJBPBgAAKDBP/gMAAEB+GQAAoMB+9KPUBQAAAEC1GAAAoMA+/enUBQAAAEC1GAAAoKA6OiL27UtdAQAAAFSLAQAACmrNmtQFAAAAQDUZAACgoDZtSl0AAAAAVJMBAAAKav/+1AUAAABANRkAAKCASqXUBQAAAEC1GQAAoIA6OlIXAABAMfjhGyAlAwAAFFBjY+oCAADIpwcfjLjxxogLL4wYOTJixIjeXxde2Hv5gw+mLgSK5JTUAQBA7d1/f+oCAADIl507I2bPjnjqqeP/u1Ip4v/8n95ft90W8Y53RNx3X8TUqbXvBIrFKwAAAAAAYAi++MWIc8/t+8n/vjz1VO/1v/CF6nYBeAUAABSM9yAFAIDKmTYtYseOwd32f/2v3lfnPv54ZZsAXuMVAABQMOvXpy4AAIB8mDJl8E/+v2bHjt6vA1ANBgAAKJiVK1MXAABA9s2Y0f+3/HkzTz0VMWtWZb4WwOsZAACgYDo7UxcAAEC2zZ8f0d5e2a/Z1haxYEFlvyaAAQAAAAAA+qmpKaK5uTpfe+PG3q8PUCkGAAAokJ6e1AUAAJBd990XsWRJde9jyZKInTurex9AcRgAAKBAqvWTSgAAkHfNzREf/3ht7uvcc2tzP0D+GQAAoEAaG1MXAABA9jQ3977vfy2dfnpt7w/IJwMAABTIrl2pCwAAIFt27Kj9k/8REfv2RUyYUPv7BfLFAAAAAAAAJ3Deeenu+6WXvBIAGBoDAAAURHt76gIAAMiWCRMiyuW0Dfv2RUyalLYByC4DAAAUxNq1qQsAACA7Zszo/Qn8etDVFTFrVuoKIIsMAABQEJs3py4AAIBsmD+//l5B29YWsWBB6gogawwAAFAQBw6kLgAAgPq3dGlEc3Pqir5t3BixbFnqCiBLDAAAUAClUuoCAACof0uXRtxyS+qKk1u92ggA9J8BAAAKoKMjdQEAANS3BQvq/8n/16xe7e2AgP45JXUAAFB9jY2pCwAAoH7Nn1+/b/tzIhs39v7nhg1pO4D65hUAAFAAra2pCwAAoD41NWXvyf/XbNzY2w9wIgYAACgAnwEAAADH27EjYsmS1BVDs2RJxM6dqSuAemUAAICc8+Q/AAD0bdq01AWVce65qQuAemUAoG6sW7cupkyZEqNHj47p06fHAw880K/b3XXXXTFs2LC46qqrqhsIkFFr1qQuABga50QAquH001MXVNbb3pa6AKhHBgDqwt133x2LFy+OFStWxIMPPhgXXHBBzJkzJ5599tmT3u7JJ5+Mv/iLv4hLL720RqUA2XPzzakLAAbPORGAahg/PmLfvtQVlfXiixHveU/qCqDeGACoC01NTfG5z30urr/++njPe94Tt99+e7zlLW+J733veye8zeHDh2P+/Pnxta99Lc4555wa1gJkR0dHxKuvpq4AGDznRAAqbcyYiJdfTl1RHY88EvHOd6auAOqJAYDkDh06FB0dHTF79uyjlw0fPjxmz54dbW1tJ7zdypUr48wzz4zPfOYztcgEyKTGxtQFAIPnnAhApTU0ROzfn7qiup58MmLKlNQVQL04JXUAPP/883H48OFoaGg45vKGhoZ49NFH+7zNr371q/jud78b27dv7/f9HDx4MA4ePHj0993d3YPqBciS1tbUBQCDV4tzojMiQHHMmBHxJu8glxtPPRUxa1bE1q2pS4DUvAKAzNm7d29cc801cccdd8QZZ5zR79utXr06xo0bd/TX5MmTq1gJUB96elIXANTOYM6JzogAxTB/fkR7e+qK2mpri1iwIHUFkJpXAJDcGWecESNGjIjdu3cfc/nu3btj4sSJx13/d7/7XTz55JNx+eWXH72sVCpFRMQpp5wSjz32WLzrXe867nZLly6NxYsXH/19d3e3b/CAXDvyVyNAZtXinOiMCJB/TU0Rzc2pK9LYuDHiQx+KeN2/6oCC8QoAkhs5cmRcdNFF0dLScvSyUqkULS0tMXPmzOOu/+53vzt+85vfxPbt24/+uuKKK+JjH/tYbN++/YTfsI0aNSrGjh17zC+APNu2LXUBwNDU4pzojAiQb/fdF7FkSeqKtJYsiXjdv0qBgvEKAOrC4sWL47rrrouLL744Lrnkkrj11ltj//79cf3110dExLXXXhtnn312rF69OkaPHh3ve9/7jrn9W9/61oiI4y4HKLLly1MXAAydcyIAg9Xc3PvWP0TMnt37v8fVV6cuAWrNAEBdmDt3bjz33HNx8803R1dXV1x44YWxZcuWox/49vTTT8fw4V6wAjAQfsoHyAPnRAAGw5P/x5s3L6Jc7v1PoDiGlcvlcuoISKG7uzvGjRsXe/bs8VJvIJeGDUtdAPTqjghnjqxwRgTIvh07IqZNS11Rv3bsiJg6NXUFzhzUih+VAYAc8gHAAAAU1XnnpS6ob8YRKBYDAADk0Pr1qQsAAKD2JkzofZsbTqxcjnjb21JXALViAACAHFq5MnUBAADU1owZES+9lLoiG158MWLWrNQVQC0YAAAghzo7UxcAAEDtXHFFRHt76opsaWuLWLAgdQVQbQYAAAAAADLriisi/vVfU1dk08aNEcuWpa4AqskAAAA509OTugAAAGrDk/9Dt3q1EQDyzAAAADnT3Jy6AAAAqs+T/5WzerW3A4K8MgAAQM40NqYuAACA6po/35P/lbZxoxEA8sgAAAA5s2tX6gIAAKiepiaveq2WjRt7//cF8sMAAAAAAEAm7NgRsWRJ6op8W7IkYufO1BVApRgAACBH2ttTFwAAQPVMm5a6oBjOPTd1AVApBgAAyJFly1IXAABAdZx+euqCYvG/N+SDAQAAcuSXv0xdAAAAlTd+fMS+fakrimXfvogJE1JXAENlAACAHOnpSV0AAACVNWZMxMsvp64oppde8koAyDoDAADkRKmUugAAACqroSFi//7UFcW2b1/EpEmpK4DBMgAAQE786EepCwAAoHJmzIh49tnUFUREdHVFzJqVugIYDAMAAOTEpz+dugAAACpj/vyI9vbUFbxeW1vEggWpK4CBMgAAQA50dPhQNAAA8mHp0ojm5tQV9GXjxoimptQVwEAYAAAgB9asSV0AAABDt3RpxC23pK7gZJYsiWhpSV0B9JcBAAByYNOm1AUAADA0Cxd68j8rZs+O+MEPUlcA/WEAAIAc2L8/dQEAAAxeU1PEt76VuoKBmDfPWzVBFhgAACDjSqXUBQAAMHg7dvS+rQzZM39+xM6dqSuAkzEAAEDGdXSkLgAAgMGbNi11AUPh8YP6ZgAAgIxrbExdAAAAgzNhQuoChqpcjnjb21JXACdiAACAjGttTV0AAAADN2NGxEsvpa6gEl58MWLWrNQVQF8MAACQcT4DAACArJk1K6K9PXUFldTWFjFzZuoK4I0MAACQYZ78BwAga6ZM6X2ymPz59a8j3vnO1BXA6xkAACDDtm1LXQAAAP03ZUrEU0+lrqCannyy93EG6oMBAAAybPny1AUAANA/M2Z48r8onnrKZwJAvTAAAECGtbSkLgAAgDc3f773/C+atraIBQtSVwAGAAAAAACqpqkpork5dQUpbNzY+/gD6RgAACCjfAAwAAD17r77IpYsSV1BSkuWROzcmboCissAAAAZtX596gIAADix5uaIj388dQX14NxzUxdAcRkAACCjli1LXQAAAH1rbu593394zemnpy6AYjIAAEBG7dqVugAAAI63Y4cn/znevn0REyakroDiMQAAAAAAUDHnnZe6gHr10kteCQC1ZgAAgAxqb09dAAAAx5swIaJcTl1BPdu3L2LSpNQVUBwGAADIoLVrUxcAAMCxZszo/QlveDNdXRGzZqWugGIwAABABm3enLoAAAD+aP58r1JlYNraIhYsSF0B+WcAAIAMOnAgdQEAAPRaujSiuTl1BVm0cWPEsmWpKyDfDAAAkDGlUuoCAADotXRpxC23pK4gy1avNgJANRkAACBjOjpSFwAAQMTChZ78pzJWr4644YbUFZBPBgAAyJjGxtQFAAAUXVNTxLe+lbqCPFm3rvf/V0BlGQAAIGNaW1MXAABQZDt2RCxZkrqCPFqyJGLnztQVkC8GAADIGJ8BAABAStOmpS4gz849N3UB5IsBAAAyxJP/AACkNGFC6gKK4G1vS10A+WEAAIAM+dGPUhcAAFBU73lPxEsvpa6gCF58MWLWrNQVkA8GAADIkE9/OnUBAABFNHFixCOPpK6gSNraImbOTF0B2WcAAICM6OiI2LcvdQUAAEUzZkzE7t2pKyiiX/864p3vTF0B2WYAAICMWLMmdQEAAEXT0BCxf3/qCorsyScjpkxJXQHZZQAAgIzYtCl1AQAARTJjRsSzz6augIinnvKZADBYBgAAyAg/eQUAQK3Mnx/R3p66Av6orS1iwYLUFZA9BgAAyIBSKXUBAABF0dQU0dycugKOt3Fj7/8/gf4zAABABnR0pC4AAKAI7rsvYsmS1BVwYkuWRLS0pK6A7DAAAEAGNDamLgAAIO+amyM+/vHUFfDmZs+O+MEPUldANhgAACAD7r8/dQEAAHnW3Nz7vv+QFfPmeasq6A8DAAAAAECB7djhyX+yaf78iJ07U1dAfTMAAECd8wHAAABU03nnpS6AwZs2LXUB1DcDAADUufXrUxcAAJBXEyZElMupK2DwyuWIt70tdQXULwMAANS5lStTFwAAkEczZkS89FLqChi6F1+MmDUrdQXUJwMAANS5zs7UBQAA5M0VV0S0t6eugMppa4tYsCB1BdQfAwAAAABAgVxxRcS//mvqCqi8jRsjli1LXQH1xQAAAHWspyd1AQAAeeLJf/Ju9WojALyeAQAA6lhzc+oCAADyYv58T/5TDKtXR9xwQ+oKqA8GAACoY42NqQsAAMiDpiY/XEKxrFvX+/97KDoDAADUsV27UhcAAJB1O3ZELFmSugJqb8mSiJ07U1dAWgYAAAAAgBybNi11AaRz7rmpCyAtAwAA1Kn29tQFAABk3ciRqQsgvdGjUxdAOgYAAKhTa9emLmBA3hIRY4/8JwBAHRg/PuLVV1NXFJwzYl04eDBiwoTUFZDGKakDAIC+bd6cuoCTmhIRsyPi/IiYFhFjXvff7YuIxyPikYi4LyKerHEbAFB448dHvPxy6ooCmhLOiHXqpZd6R4AXX0xdArVlAACAOnXgQOoC+jQjIuZFxPsjoid6X0/5xtdUjomICyPiAxExPyJ+ExEbI8LbOgEANTBmTMT+/akrCsYZMRNeeini9NMj9u5NXQK1YwAAgDpUKqUu4DhjI+LG6P2JrsNHLjvZSer13/S9JyJuid6f9PqfEeEbDgCgShoaPPlfU86ImbNvX8SkSRG7dqUugdrwGQAAUIfuuSd1Acc4JyL+ISI+duT3IwZ4+9eu/7GI+H5EvLMyWQAArzdjRsSzz6auKBBnxMzq6oqYNSt1BdSGAQAA6tB116Uu4KhzovcnssbFwL+pe6MRR77ON8M3eABARc2fH9HurWRqxxkx89raIhYsSF0B1WcAAIA609HhZdt1Y2xE/F1EjI6hf2P3mhFHvt7aiDi9Ql8TACi0pqaI5ubUFQXijJgbGzf2/vMDeWYAAIA6s2ZN6gKOujEq81Ndb/TaT3n9fxX+ugBA4ezYEbFkSeqKgnFGzJUlSyJ27kxdAdVjAACAOrNpU+oCIiJiRvR+mFulv7F7zYgjX396lb4+AFAIl16auqBgnBFz6aKLUhdA9RgAAKDOePufOjEvIg5X+T4OH7kfAIBBuOeeiN27U1cUjDNiLnV3R9x+e+oKqA4DAADUkVIpdQERETElIt4f1fvJrteMiIgPHLk/AIAB+vSnUxcUzJRwRsyxG25IXQDVYQAAgDrS0ZG6gIjofdl1T43uqyciLqvRfQEAudHREfHyy6krCsYZMdcOH+79UGDIGwMAANSRxsbUBURExPlR/Z/ses3wI/cHADAA3/9+6oICckbMvb/929QFUHkGAACoI62tqQuIiIhpETGsRvc1PCLOq9F9AQC58ctfpi4oIGfE3Nu5M3UBVJ4BAADqiM8AqANviYgxNb7PMRFxWo3vEwDItP/4j9QFBeOMWAivvJK6ACrPAAAAdcKT/3XilET3e2qi+wUAMqdU6n2/cmrIGbEwemr1OQ9QIwYAAKgT27alLiAiavfBbm/0aqL7BQAyZ/jwiFNSPSFdVM6IheGfLfLGAAAAdWL58tQFRETEgYjYV+P73BcRXm4MAAzAe9+buqBgnBEL4TRvuUQOGQAAoE60tKQu4KjHI6Jco/sqRcRjNbovACA3Lr00dUEBOSPm3tSpqQug8gwAAABv9EhE1Op9dUtH7g8AYACuvz51QQE5I+beV76SugAqzwAAAHXABwDXmfuidh/0dkpEePUHADBAH/pQxAc/mLqiYJwRc23UqIj581NXQOUZAACgDqxfn7qAYzwZEb+J6v+E1+GI+L9H7g8AYIB++MPUBQXzZDgj5timTakLoDoMAABQB1auTF3AcZojYkSV72PEkfsBABiEqVMjmppSVxSMM2IuXXJJxGWXpa6A6jAAAEAd6OxMXcBxfh29L/Ou1k94HT7y9dur9PUBgEJYtMjbltSUM2LujBgR0e5/b3LMAAAAcCLfjIg9Uflv8A4f+br/s8JfFwAopA0bImbMSF1RIM6IufLoo6kLoLoMAACQmJ82qWPdEfEXEfGHqNw3eIePfL2/iIi9FfqaAEDhtbVFTJiQuqIgnBFzo6mp9620IM8MAACQ2De+kbqAk+qMiBujMj/l9dpPdd145OsCAFTQCy9EDPdMT204I2beggW9b6EFeedfCwCQ2E9/mrqAN9UZEX8eEb848vuBfpP32vXvP/J1fGMHAFTJY4+lLigQZ8TMmjkz4s47U1dAbRgAACCxV15JXUC/7I2Iv4mIxoj4jyOX9URE6QTXLx357+PI9RsjYlV4STcAUFVTp0Y0N6euKBBnxMyZMiVi69bUFVA7p6QOAIAiK53oGwPqV/uRX1Mi4rKIOD8izouIMa+7zr6IeCwiHomIloh4sqaFAEDBXX11RLkcMX9+6pICcUbMhClTIjq90oKCMQAAQEIdHakLGLQnI+K7r/v9aRFxakS8GhFe1QEAJDZvXkRDQ8Ts2alLCubJcEasU+efH/Hww6kroPa8BRAAJNTYmLqAinklIrrDN3YAQN247LKIpqbUFQXnjFgXJkzw5D/FZQAAgIRaW1MXAACQZ4sWeSsgeOGF1AWQjgEAABLyGQAAAFTbhg0RM2akroA0duxIXQBpGQAAIBFP/gMAUCttbb2fCQBF0tQUMXVq6gpIywAAAIn86EepCwAAKJKurogxY1JXQG3ccEPvW2BB0RkAACCRT386dQEAAEWzd2/ExImpK6C6mpoivvnN1BVQH05JHQAARdTREbFvX+oKAACKaNeuiPe8J+KRR1KXQOXdd1/EZZelroD64RUAAJDAmjWpCwAAKLKHH46YMCF1BVRWU5Mn/+GNDAAAkMCmTakLAAAouhdeiBg2LHUFVMaCBd7zH/piAKBurFu3LqZMmRKjR4+O6dOnxwMPPHDC695xxx1x6aWXxvjx42P8+PExe/bsk14foN7s35+6ACA7nBMBqufxx1MXwNDNnBlx552pK6A+GQCoC3fffXcsXrw4VqxYEQ8++GBccMEFMWfOnHj22Wf7vH5ra2tcffXV8Ytf/CLa2tpi8uTJ8Wd/9mfx+9//vsblAANXKqUuAMgO50SA6po6tfdtUyCrJk6M2Lo1dQXUr2HlcrmcOgKmT58eH/7wh+O2226LiIhSqRSTJ0+OG2+8MRobG9/09ocPH47x48fHbbfdFtdee22/7rO7uzvGjRsXe/bsibFjxw6pH2Agtm2LuOSS1BVA7XRHhDPHYNX6nOiMCBTVDTdErFuXugIGZsyYiL17U1cMjjMHteIVACR36NCh6OjoiNmzZx+9bPjw4TF79uxoa2vr19c4cOBAvPrqqzHhJJ9gdPDgweju7j7mF0AK/Xi+CoCozTnRGRGg1223RSxdmroC+m/8+Ow++Q+1ZAAgueeffz4OHz4cDQ0Nx1ze0NAQXV1d/foaX/nKV+Kss8465pvDN1q9enWMGzfu6K/JkycPqRtgsO6/P3UBQDbU4pzojAjwR6tWGQHIhjFjIl58MXUFZIMBgMy75ZZb4q677op77rknRo8efcLrLV26NPbs2XP01zPPPFPDSgAAaq0/50RnRIBjrVoVMX9+6go4OT/5D/13SuoAOOOMM2LEiBGxe/fuYy7fvXt3TJw48aS3Xbt2bdxyyy1x3333xQc+8IGTXnfUqFExatSoIfcCDIUPAAbov1qcE50RAY63YUPE734X8etfpy6B4+3YkboAssUrAEhu5MiRcdFFF0VLS8vRy0qlUrS0tMTMmTNPeLs1a9bE17/+9diyZUtcfPHFtUgFGLL161MXAGSHcyJAOm1tESf5mD1IoqkpYurU1BWQLV4BQF1YvHhxXHfddXHxxRfHJZdcErfeemvs378/rr/++oiIuPbaa+Pss8+O1atXR0TE3/7t38bNN98czc3NMWXKlKPvATtmzJgYM2ZMsj8HwJtZuTJ1AUC2OCcCpPPCCxEjRngVK/VhwYKIRYtSV0D2GACoC3Pnzo3nnnsubr755ujq6ooLL7wwtmzZcvQD355++ukYPvyPL1j59re/HYcOHYr/8l/+yzFfZ8WKFfFXf/VXtUwHGJDOztQFANninAiQ1mOPRZx7buoKiu7KKyPuvDN1BWTTsHK5XE4dASl0d3fHuHHjYs+ePTF27NjUOUBBDBuWugCove6IcObICmdEgOP94AcR8+alrqCorrwy4t57U1dUnjMHteIzAACgRnp6UhcAAMDAXX11xMaNqSsoorw++Q+1ZAAAgBppbk5dAAAAgzNvXsR996WuoEhmzvTkP1SCAQAAaqSxMXUBAAAM3mWXRTQ1pa6gCCZOjNi6NXUF5IMBAABqZNeu1AUAADA0ixZFzJ+fuoI8GzXK905QSQYAAAAAAPptw4aIK65IXUFe/eEPqQsgXwwAAFAD7e2pCwAAoHJ+8hMjAJW3Y0fqAsgfAwAA1MDatakLAACgsowAVFJzc8TUqakrIH8MAABQA5s3py4AAIDKMwJQCc3NEVdfnboC8skAAAA1cOBA6gIAAKiOn/wkYsaM1BVk1X33efIfqskAAABVViqlLgAAgOpqa4uYMCF1BVnT1BRx2WWpKyDfDAAAUGUdHakLAACg+l54IWLYsNQVZMWCBRGLFqWugPwzAABAlX3+86kLAACgNh5/PHUBWTBzZsSdd6augGIwAABAlW3fnroAAABqY+rU3rd1gROZMiVi69bUFVAcBgAAqKING1IXAABAbS1aFLFwYeoK6tGUKRGdnakroFgMAABQRY2NqQsAAKD2brstYunS1BXUk/PP9+Q/pGAAAIAq+v3vUxcAAEAaq1YZAeg1YULEww+nroBiMgAAAAAAUBWrVkXMn5+6gtReeCF1ARSXAQAAqqS9PXUBAACkt2FDxIwZqStIZceO1AVQbAYAAKiSZctSFwAAQH1oa4toaEhdQa01NUVMnZq6AorNAAAAVdLamroAAADqR1dXxJgxqSuolQULIhYtSl0BGAAAoEpKpdQFAABQX/bujRg/PnUF1XbllRF33pm6AogwAABAVXjyHwAA+vbiixGnn566gmq58sqIe+9NXQG8xgAAAFWwbVvqAgAAqF/d3RHDhqWuoNI8+Q/1xwAAAFWwfHnqAgAAqG+PP566gEqaOdOT/1CPDAAAUAUtLakLAACgvk2dGtHUlLqCSpg4MWLr1tQVQF8MAAAAAAAksWhRxPz5qSsYitNOi9i1K3UFcCIGAACoMB8ADAAA/bdhQ8QVV6SuYDBGj444cCB1BXAyBgAAqLD161MXAABAtvzkJ0aArBk/PuKVV1JXAG/GAAAAFbZyZeoCAADIHiNAdowZE/Hii6krgP4wAABAhXV2pi4AAIBsMgJkw969qQuA/jIAAAAAAFA3fvKTiBkzUldwIjt2pC4ABsIAAAAV1NOTugAAALKvrS1iwoTUFbxRU1PE1KmpK4CBMAAAQAU1N6cuAACAfHjhhYjhnrmqGwsWRCxalLoCGCh/jQJABTU2pi4AAID8eOyx1AVERMycGXHnnakrgMEwAABABe3alboAAADyY+pUr7JNbcqUiK1bU1cAg2UAAAAAAKBuXX11xMaNqSuKacqUiM7O1BXAUBgAAKBC2ttTFwAAQD7Nmxdx332pK4rl/PM9+Q95YAAAgApZtix1AQAA5Ndll0U0NaWuKIYJEyIefjh1BVAJBgAAqJBf/jJ1AQAA5NuiRRHz56euyL8XXkhdAFSKAQAAKqSnJ3UBAADk34YNETNmpK7Irx07UhcAlWQAAIAKKJVSFwAAQHG0tUU0NKSuyJ+mpoipU1NXAJVkAACACvjRj1IXAABAsXR1RYwZk7oiP264ofctloB8MQAAQAV8+tOpCwAAoHj27o0YPz51RfYtXRrxzW+mrgCqwQAAAEPU0RGxb1/qCgAAKKYXX4w4/fTUFdm1dGnEqlWpK4BqMQAAwBCtWZO6AAAAiq27O2LYsNQV2bNggSf/Ie8MAAAwRJs2pS4AAAAefzx1QbbMnBlx552pK4BqMwAAwBDt35+6AAAAmDo1oqkpdUU2TJwYsXVr6gqgFgwAADAEpVLqAgAA4DWLFkXMn5+6or6ddlrErl2pK4BaMQAAwBB0dKQuAAAAXm/DBiPAiYweHXHgQOoKoJYMAAAwBI2NqQsAAIA32rAhYunS1BX1Zfz4iFdeSV0B1JoBAACGoLU1dQEAANCXVauMAK8ZMybixRdTVwApGAAAYAh8BgAAANSvVau8HVBExN69qQuAVAwAADBInvwHAID6t2FDxIwZqSvS2bEjdQGQkgEAAAZp27bUBQAAQH+0tUVMmJC6ovaamiKmTk1dAaRkAACAQVq+PHUBAADQXy+8EDG8QM+ELVgQsWhR6gogtQL9tQcAldXSkroAAAAYiMceS11QG1deGXHnnakrgHpgAAAAAACgEKZOjWhuTl1RXVdeGXHvvakrgHphAACAQfABwAAAkE1XXx2xcWPqiurw5D/wRgYAABiE9etTFwAAAIM1b17EffelrqismTM9+Q8czwAAAIOwbFnqAgAAYCguuyyiqSl1RWVMmBCxdWvqCqAeGQAAYBB27UpdAAAADNWiRRHz56euGLoXXkhdANQrAwAAAAAAhbVhQ8SMGakrBm/HjtQFQD0zAADAALW3py4AAAAqqa0tYsqU1BUD19QUMXVq6gqgnhkAAGCA1q5NXQAAAFRaZ2fEO96RuqL/brih9y2MAE7GAAAAA7R5c+oCAACgGp58MuL881NXvLmlSyO++c3UFUAWGAAAYIAOHEhdAAAAVMvDD0c0NKSuOLGlSyNWrUpdAWSFAQAABqBUSl0AAABUW1dXxMiRqSuOt2CBJ/+BgTEAAMAAdHSkLgAAAGrh4MHUBce68sqIO+9MXQFkjQEAAAbg859PXQAAANTKjh2pC3rNnBlx772pK4AsMgAAwABs3566AAAAqJWpUyOamtI2TJkSsXVr2gYguwwAANBPGzakLgAAAGpt0aKIhQvT3PeUKRGdnWnuG8gHAwAA9FNjY+oCAAAghdtui1i6tLb3ef75nvwHhs4AAAD99Pvfpy4AAABSWbWqdiPAhAkRDz9cm/sC8s0AAAAAAAD9sGpVxPz51b+fF16o/n0AxWAAAIB+aG9PXQAAANSDDRsiZsyo3tffsaN6XxsoHgMAAPTD2rWpCwAAgHrR1hbR0FD5r9vUFDF1auW/LlBcBgAA6IfNm1MXAAAA9aSrK2LMmMp9vQULIhYtqtzXA4gwAABAvxw4kLoAAACoN3v3RvzJnwz96yxYEHHnnUP/OgBvZAAAgDdRKqUuAAAA6tUzz0R84QuDv31Tkyf/geoxAADAm+joSF0AAADUs29/u/fDe886q/+3ee97e2/jbX+AajIAAMCbaGxMXQAAANS7qVMjfv/73h8g+tSnIs444/jrnHFGxNy5vdf57W994C9QfaekDgCAenf//akLAACArPjQhyLuvvuPv3/tLUWH+zFcIAEDAAAAAABUiSf+gZT8FQQAJ+EDgAEAAICsMgAAwEmsX5+6AAAAAGBwDAAAcBIrV6YuAAAAABgcAwAAnERnZ+oCAAAAgMExAAAAAAAAQA4ZAADgBHp6UhcAAAAADJ4BAABOoLk5dQEAAADA4BkAAOAEGhtTFwAAAAAMngEAAE5g167UBQAAAACDZwAAAAAAAIAcMgAAQB/a21MXAAAAAAyNAQAA+rB2beoCAAAAgKExAABAHzZvTl0AAAAAMDQGAADow4EDqQsAAAAAhsYAAABvUCqlLgAAAAAYOgMAALzBPfekLgAAAAAYOgMAALzBddelLgAAAAAYOgMAALxOR0fE/v2pKwAAAACGzgAAAK+zZk3qAgAAAIDKMAAAwOts2pS6AAAAAKAyDAAA8Dre/gcAAADICwMAABxRKqUuAAAAAKgcAwAAHNHRkboAAAAAoHIMAABwRGNj6gIAAACAyjEAAMARra2pCwAAAAAqxwBA3Vi3bl1MmTIlRo8eHdOnT48HHnjgpNf/p3/6p3j3u98do0ePjve///2xefPmGpUCeeUzAADqk3MiAAAMjgGAunD33XfH4sWLY8WKFfHggw/GBRdcEHPmzIlnn322z+tv3bo1rr766vjMZz4TDz30UFx11VVx1VVXxW9/+9salwN54cl/gPrknAgAAIM3rFwul1NHwPTp0+PDH/5w3HbbbRERUSqVYvLkyXHjjTdGYx9vyj137tzYv39//PSnPz162YwZM+LCCy+M22+/vV/32d3dHePGjYs9e/bE2LFjK/MHATKrpyfi1FNTVwD51B0RzhyDVetzojMiAFALzhzUyimpA+DQoUPR0dERS5cuPXrZ8OHDY/bs2dHW1tbnbdra2mLx4sXHXDZnzpy49957T3g/Bw8ejIMHDx79/Z49eyKi9y9cAK8AAKqn96zh524GrhbnRGdEACCF184azohUmwGA5J5//vk4fPhwNDQ0HHN5Q0NDPProo33epqurq8/rd3V1nfB+Vq9eHV/72teOu3zy5MmDqAYAGJgXXnghxo0blzojU2pxTnRGBABSckak2gwAFMbSpUuP+Wmwl19+Od7xjnfE008/7S/aDOju7o7JkyfHM88846VxGeDxyh6PWbZ4vLJlz5498fa3vz0mTJiQOoU+OCNmn78Ts8XjlS0er2zxeGWLMyK1YgAguTPOOCNGjBgRu3fvPuby3bt3x8SJE/u8zcSJEwd0/YiIUaNGxahRo467fNy4cf7FmCFjx471eGWIxyt7PGbZ4vHKluHDh6dOyJxanBOdEfPD34nZ4vHKFo9Xtni8ssUZkWrz/zCSGzlyZFx00UXR0tJy9LJSqRQtLS0xc+bMPm8zc+bMY64fEfHzn//8hNcHACB7nBMBAGBovAKAurB48eK47rrr4uKLL45LLrkkbr311ti/f39cf/31ERFx7bXXxtlnnx2rV6+OiIgvf/nL8dGPfjS+8Y1vxCc/+cm466674t///d/jO9/5Tso/BgAAFeacCAAAg2cAoC7MnTs3nnvuubj55pujq6srLrzwwtiyZcvRD3B7+umnj3lJ1KxZs6K5uTluuummWLZsWZx77rlx7733xvve975+3+eoUaNixYoVfb7km/rj8coWj1f2eMyyxeOVLR6voan1OdHjlT0es2zxeGWLxytbPF7Z4vGiVoaVy+Vy6ggAAAAAAKCyfAYAAAAAAADkkAEAAAAAAAByyAAAAAAAAAA5ZAAAAAAAAIAcMgCQa+vWrYspU6bE6NGjY/r06fHAAw+c9Pr/9E//FO9+97tj9OjR8f73vz82b95co1IiBvZ43XHHHXHppZfG+PHjY/z48TF79uw3fXyprIH+8/Wau+66K4YNGxZXXXVVdQM5zkAfs5dffjkWLlwYkyZNilGjRsW0adP8vVhDA328br311jjvvPPitNNOi8mTJ8eiRYviD3/4Q41qi+2Xv/xlXH755XHWWWfFsGHD4t57733T27S2tsaHPvShGDVqVEydOjW+//3vV72TP3JGzBZnxOxxTswWZ8RscUbMDmdE6kYZcuquu+4qjxw5svy9732v/B//8R/lz33uc+W3vvWt5d27d/d5/X/7t38rjxgxorxmzZryww8/XL7pppvKp556avk3v/lNjcuLaaCP17x588rr1q0rP/TQQ+VHHnmk/Od//uflcePGlf/f//t/NS4vpoE+Xq/p7Owsn3322eVLL720fOWVV9YmlnK5PPDH7ODBg+WLL764/IlPfKL8q1/9qtzZ2VlubW0tb9++vcblxTTQx2vjxo3lUaNGlTdu3Fju7Ows/+xnPytPmjSpvGjRohqXF9PmzZvLy5cvL//4xz8uR0T5nnvuOen1n3jiifJb3vKW8uLFi8sPP/xw+Zvf/GZ5xIgR5S1bttQmuOCcEbPFGTF7nBOzxRkxW5wRs8UZkXphACC3LrnkkvLChQuP/v7w4cPls846q7x69eo+r/+pT32q/MlPfvKYy6ZPn17+b//tv1W1k14DfbzeqKenp3z66aeX//Ef/7FaibzOYB6vnp6e8qxZs8p///d/X77uuut8Y1djA33Mvv3tb5fPOeec8qFDh2qVyOsM9PFauHBh+T//5/98zGWLFy8uf+QjH6lqJ8frzzd3f/mXf1l+73vfe8xlc+fOLc+ZM6eKZbzGGTFbnBGzxzkxW5wRs8UZMbucEUnJWwCRS4cOHYqOjo6YPXv20cuGDx8es2fPjra2tj5v09bWdsz1IyLmzJlzwutTOYN5vN7owIED8eqrr8aECROqlckRg328Vq5cGWeeeWZ85jOfqUUmrzOYx+xf/uVfYubMmbFw4cJoaGiI973vfbFq1ao4fPhwrbILazCP16xZs6Kjo+PoS8CfeOKJ2Lx5c3ziE5+oSTMD48yRjjNitjgjZo9zYrY4I2aLM2L+OXNQLaekDoBqeP755+Pw4cPR0NBwzOUNDQ3x6KOP9nmbrq6uPq/f1dVVtU56DebxeqOvfOUrcdZZZx33L0sqbzCP169+9av47ne/G9u3b69BIW80mMfsiSeeiPvvvz/mz58fmzdvjp07d8aXvvSlePXVV2PFihW1yC6swTxe8+bNi+effz7+9E//NMrlcvT09MQXvvCFWLZsWS2SGaATnTm6u7vjlVdeidNOOy1RWf45I2aLM2L2OCdmizNitjgj5p8zItXiFQBA5t1yyy1x1113xT333BOjR49OncMb7N27N6655pq444474owzzkidQz+VSqU488wz4zvf+U5cdNFFMXfu3Fi+fHncfvvtqdPoQ2tra6xatSq+9a1vxYMPPhg//vGPY9OmTfH1r389dRpAMs6I9c85MXucEbPFGRGI8AoAcuqMM86IESNGxO7du4+5fPfu3TFx4sQ+bzNx4sQBXZ/KGczj9Zq1a9fGLbfcEvfdd1984AMfqGYmRwz08frd734XTz75ZFx++eVHLyuVShERccopp8Rjjz0W73rXu6obXXCD+Wds0qRJceqpp8aIESOOXnb++edHV1dXHDp0KEaOHFnV5iIbzOP11a9+Na655pr47Gc/GxER73//+2P//v3x+c9/PpYvXx7Dh/uZj3pyojPH2LFj/WRXlTkjZoszYvY4J2aLM2K2OCPmnzMi1eKfdHJp5MiRcdFFF0VLS8vRy0qlUrS0tMTMmTP7vM3MmTOPuX5ExM9//vMTXp/KGczjFRGxZs2a+PrXvx5btmyJiy++uBapxMAfr3e/+93xm9/8JrZv33701xVXXBEf+9jHYvv27TF58uRa5hfSYP4Z+8hHPhI7d+48+k14RMTjjz8ekyZN8o1dlQ3m8Tpw4MBx38C99o15uVyuXiyD4syRjjNitjgjZo9zYrY4I2aLM2L+OXNQNWk/gxiq56677iqPGjWq/P3vf7/88MMPlz//+c+X3/rWt5a7urrK5XK5fM0115QbGxuPXv/f/u3fyqecckp57dq15UceeaS8YsWK8qmnnlr+zW9+k+qPUCgDfbxuueWW8siRI8v//M//XN61a9fRX3v37k31RyiUgT5eb3TdddeVr7zyyhrVUi4P/DF7+umny6effnr5hhtuKD/22GPln/70p+Uzzzyz/Nd//dep/giFMtDHa8WKFeXTTz+9/IMf/KD8xBNPlP/3//7f5Xe9613lT33qU6n+CIWyd+/e8kMPPVR+6KGHyhFRbmpqKj/00EPlp556qlwul8uNjY3la6655uj1n3jiifJb3vKW8v/4H/+j/Mgjj5TXrVtXHjFiRHnLli2p/giF4oyYLc6I2eOcmC3OiNnijJgtzojUCwMAufbNb36z/Pa3v708cuTI8iWXXFL+9a9/ffS/++hHP1q+7rrrjrn+D3/4w/K0adPKI0eOLL/3ve8tb9q0qcbFxTaQx+sd73hHOSKO+7VixYrahxfUQP/5ej3f2KUx0Mds69at5enTp5dHjRpVPuecc8p/8zd/U+7p6alxdXEN5PF69dVXy3/1V39Vfte73lUePXp0efLkyeUvfelL5Zdeeqn24QX0i1/8os9/J732GF133XXlj370o8fd5sILLyyPHDmyfM4555T/4R/+oebdReaMmC3OiNnjnJgtzojZ4oyYHc6I1Ith5bLX/AAAAAAAQN74DAAAAAAAAMghAwAAAAAAAOSQAQAAAAAAAHLIAAAAAAAAADlkAAAAAAAAgBwyAAAAAAAAQA4ZAAAAAAAAIIcMAAAAAAAAkEMGAAAAAAAAyCEDAAAAAAAA5JABAAAAAAAAcsgAAAAAAAAAOWQAAAAAAACAHDIAAAAAAABADhkAAAAAAAAghwwAAAAAAACQQwYAAAAAAADIIQMAAAAAAADkkAEAAAAAAAByyAAAAAAAAAA5ZAAAAAAAAIAcMgAAAAAAAEAOGQAAAAAAACCHDAAAAAAAAJBDBgAAAAAAAMghAwAAAAAAAOSQAQAAAAAAAHLIAAAAAAAAADlkAAAAAAAAgBwyAAAAAAAAQA4ZAAAAAAAAIIcMAAAAAAAAkEMGAAAAAAAAyCEDAAAAAAAA5JABAAAAAAAAcsgAAAAAAAAAOWQAAAAAAACAHDIAAAAAAABADhkAAAAAAAAghwwAAAAAAACQQwYAAAAAAADIIQMAAAAAAADkkAEAAAAAAAByyAAAAAAAAAA5ZAAAAAAAAIAcMgAAAAAAAEAOGQAAAAAAACCHDAAAAAAAAJBDBgAAAAAAAMghAwAAAAAAAOSQAQAAAAAAAHLIAAAAAAAAADlkAAAAAAAAgBwyAAAAAAAAQA4ZAAAAAAAAIIcMAAAAAAAAkEMGAAAAAAAAyCEDAAAAAAAA5JABAAAAAAAAcsgAAAAAAAAAOWQAAAAAAACAHDIAAAAAAABADhkAAAAAAAAgh/5/WvrGb+H0cWUAAAAASUVORK5CYII=;connectable=0;" vertex="1" parent="1">
          <mxGeometry x="100" y="150" width="1536" height="771" as="geometry" />
        </mxCell>
        <mxCell id="TQN7dY6TnlDZfphlFs2Y-4" value="" style="endArrow=none;html=1;rounded=0;strokeWidth=5;entryX=0.743;entryY=0.337;entryDx=0;entryDy=0;entryPerimeter=0;dashed=1;" edge="1" parent="1" target="TQN7dY6TnlDZfphlFs2Y-1">
          <mxGeometry width="50" height="50" relative="1" as="geometry">
            <mxPoint x="1241" y="690" as="sourcePoint" />
            <mxPoint x="1241" y="570" as="targetPoint" />
          </mxGeometry>
        </mxCell>
        <mxCell id="TQN7dY6TnlDZfphlFs2Y-5" value="Text" style="text;html=1;align=center;verticalAlign=middle;resizable=0;points=[];autosize=1;strokeColor=none;fillColor=none;" vertex="1" parent="1">
          <mxGeometry x="1160" y="40" width="40" height="20" as="geometry" />
        </mxCell>
        <mxCell id="TQN7dY6TnlDZfphlFs2Y-7" value="" style="endArrow=none;html=1;rounded=0;strokeWidth=5;entryX=0.743;entryY=0.337;entryDx=0;entryDy=0;entryPerimeter=0;dashed=1;" edge="1" parent="1">
          <mxGeometry width="50" height="50" relative="1" as="geometry">
            <mxPoint x="1455" y="691.17" as="sourcePoint" />
            <mxPoint x="1455.248" y="410.997" as="targetPoint" />
          </mxGeometry>
        </mxCell>
        <mxCell id="TQN7dY6TnlDZfphlFs2Y-9" value="" style="triangle;whiteSpace=wrap;html=1;rotation=-90;strokeWidth=3;strokeColor=#FF0000;" vertex="1" parent="1">
          <mxGeometry x="1305" y="260" width="90" height="210" as="geometry" />
        </mxCell>
        <mxCell id="TQN7dY6TnlDZfphlFs2Y-10" value="" style="endArrow=none;html=1;rounded=0;strokeWidth=5;entryX=0.978;entryY=0.492;entryDx=0;entryDy=0;entryPerimeter=0;dashed=1;" edge="1" parent="1" target="TQN7dY6TnlDZfphlFs2Y-9">
          <mxGeometry width="50" height="50" relative="1" as="geometry">
            <mxPoint x="1348.38" y="689.17" as="sourcePoint" />
            <mxPoint x="1348.6280000000002" y="408.99700000000024" as="targetPoint" />
          </mxGeometry>
        </mxCell>
        <mxCell id="TQN7dY6TnlDZfphlFs2Y-11" value="&lt;font style=&quot;font-size: 32px&quot;&gt;v&lt;/font&gt;" style="text;html=1;align=center;verticalAlign=middle;resizable=0;points=[];autosize=1;strokeColor=none;fillColor=none;labelBackgroundColor=default;" vertex="1" parent="1">
          <mxGeometry x="1333" y="421" width="30" height="30" as="geometry" />
        </mxCell>
        <mxCell id="TQN7dY6TnlDZfphlFs2Y-12" value="" style="endArrow=classic;startArrow=classic;html=1;rounded=0;fontSize=32;strokeWidth=5;" edge="1" parent="1">
          <mxGeometry width="50" height="50" relative="1" as="geometry">
            <mxPoint x="1250" y="530" as="sourcePoint" />
            <mxPoint x="1450" y="530" as="targetPoint" />
          </mxGeometry>
        </mxCell>
        <mxCell id="TQN7dY6TnlDZfphlFs2Y-13" value="&lt;font style=&quot;font-size: 32px&quot;&gt;w&lt;/font&gt;" style="text;html=1;align=center;verticalAlign=middle;resizable=0;points=[];autosize=1;strokeColor=none;fillColor=none;labelBackgroundColor=default;" vertex="1" parent="1">
          <mxGeometry x="1328" y="511" width="40" height="30" as="geometry" />
        </mxCell>
        <mxCell id="TQN7dY6TnlDZfphlFs2Y-14" value="" style="endArrow=none;html=1;rounded=0;fontSize=32;strokeWidth=3;" edge="1" parent="1">
          <mxGeometry width="50" height="50" relative="1" as="geometry">
            <mxPoint x="1190" y="410" as="sourcePoint" />
            <mxPoint x="1510" y="410" as="targetPoint" />
          </mxGeometry>
        </mxCell>
        <mxCell id="TQN7dY6TnlDZfphlFs2Y-15" value="" style="endArrow=none;html=1;rounded=0;strokeWidth=5;dashed=1;" edge="1" parent="1">
          <mxGeometry width="50" height="50" relative="1" as="geometry">
            <mxPoint x="500" y="660" as="sourcePoint" />
            <mxPoint x="550" y="440" as="targetPoint" />
          </mxGeometry>
        </mxCell>
        <mxCell id="TQN7dY6TnlDZfphlFs2Y-16" value="" style="endArrow=none;html=1;rounded=0;strokeWidth=5;dashed=1;" edge="1" parent="1">
          <mxGeometry width="50" height="50" relative="1" as="geometry">
            <mxPoint x="670" y="694" as="sourcePoint" />
            <mxPoint x="720" y="474" as="targetPoint" />
          </mxGeometry>
        </mxCell>
        <mxCell id="TQN7dY6TnlDZfphlFs2Y-17" value="" style="endArrow=none;html=1;rounded=0;fontSize=32;strokeWidth=3;" edge="1" parent="1">
          <mxGeometry width="50" height="50" relative="1" as="geometry">
            <mxPoint x="550" y="440" as="sourcePoint" />
            <mxPoint x="720" y="480" as="targetPoint" />
          </mxGeometry>
        </mxCell>
        <mxCell id="TQN7dY6TnlDZfphlFs2Y-18" value="" style="endArrow=none;html=1;rounded=0;fontSize=32;strokeWidth=3;" edge="1" parent="1">
          <mxGeometry width="50" height="50" relative="1" as="geometry">
            <mxPoint x="640" y="460" as="sourcePoint" />
            <mxPoint x="660" y="370" as="targetPoint" />
          </mxGeometry>
        </mxCell>
        <mxCell id="TQN7dY6TnlDZfphlFs2Y-19" value="" style="endArrow=none;html=1;rounded=0;fontSize=32;strokeWidth=3;strokeColor=#FF0000;" edge="1" parent="1">
          <mxGeometry width="50" height="50" relative="1" as="geometry">
            <mxPoint x="640" y="460" as="sourcePoint" />
            <mxPoint x="730" y="430" as="targetPoint" />
          </mxGeometry>
        </mxCell>
        <mxCell id="TQN7dY6TnlDZfphlFs2Y-20" value="ReLU" style="text;html=1;align=center;verticalAlign=middle;resizable=0;points=[];autosize=1;strokeColor=none;fillColor=none;fontSize=32;" vertex="1" parent="1">
          <mxGeometry x="530" y="381" width="100" height="40" as="geometry" />
        </mxCell>
        <mxCell id="TQN7dY6TnlDZfphlFs2Y-21" value="Hat Function" style="text;html=1;align=center;verticalAlign=middle;resizable=0;points=[];autosize=1;strokeColor=none;fillColor=none;fontSize=32;" vertex="1" parent="1">
          <mxGeometry x="1105" y="310" width="200" height="40" as="geometry" />
        </mxCell>
      </root>
    </mxGraphModel>
  </diagram>
</mxfile>
